<?xml version="1.0" encoding="UTF-8" standalone="no"?>
<svg
   xmlns:dc="http://purl.org/dc/elements/1.1/"
   xmlns:cc="http://creativecommons.org/ns#"
   xmlns:rdf="http://www.w3.org/1999/02/22-rdf-syntax-ns#"
   xmlns:svg="http://www.w3.org/2000/svg"
   xmlns="http://www.w3.org/2000/svg"
   xmlns:sodipodi="http://sodipodi.sourceforge.net/DTD/sodipodi-0.dtd"
   xmlns:inkscape="http://www.inkscape.org/namespaces/inkscape"
   viewBox="0 0 181.62279 165.04373"
   version="1.1"
   id="svg56"
   sodipodi:docname="dis-diagram.svg">
  <metadata
     id="metadata62">
    <rdf:RDF>
      <cc:Work
         rdf:about="">
        <dc:format>image/svg+xml</dc:format>
        <dc:type
           rdf:resource="http://purl.org/dc/dcmitype/StillImage" />
      </cc:Work>
    </rdf:RDF>
  </metadata>
  <defs
     id="defs60" />
  <sodipodi:namedview
     pagecolor="#ffffff"
     bordercolor="#666666"
     borderopacity="1"
     objecttolerance="10"
     gridtolerance="10"
     guidetolerance="10"
     inkscape:pageopacity="0"
     inkscape:pageshadow="2"
     inkscape:window-width="640"
     inkscape:window-height="480"
     id="namedview58"
     showgrid="false" />
  <g
     fill="none"
     stroke="#000"
     stroke-linecap="round"
     stroke-width="1.60000002"
     id="g8">
    <path
       d="M.811394 40.8075966h80M80.811394 40.8075966l45-40M89.811394 112.8075966l36-32M125.811394 80.8075966h55"
       id="path2" />
    <g
       fill="#000"
       stroke="none"
       stroke-width="0"
       id="g6">
      <path
         d="M45.611394 40.8075966l-8-4 3.2 4-3.2 4zM106.89893204 17.61862144l-8.6367112 2.32534287 5.04917211.8636324.26578667 5.11559942zM111.39893496 93.61862283l-8.6367112 2.32534288 5.04917211.8636324.26578667 5.11559942zM158.111394 80.8075966l-8-4 3.2 4-3.2 4z"
         id="path4" />
    </g>
  </g>
  <path
     fill="none"
     stroke="#000"
     stroke-linecap="round"
     stroke-width="1.60000002"
     d="M80.81139597 40.80759712c-.5926421 3.677083-1.0796373 5.73012943.41517065 7.05886912 1.49480795 1.3287397 3.4766111.60443296 7.05886912-.41517064s5.56406117-1.74391034 7.05886913-.41517065c1.49480795 1.3287397 1.00781275 3.38178614.41517064 7.05886913-.5926421 3.677083-1.0796373 5.73012943.41517065 7.05886913 1.49480795 1.3287397 3.4766111.60443295 7.05886913-.41517065 3.58225801-1.0196036 5.56406117-1.74391034 7.05886912-.41517065 1.49480796 1.3287397 1.00781275 3.38178614.41517065 7.05886913-.59264211 3.677083-1.07963731 5.73012943.41517064 7.05886913 1.49480796 1.3287397 3.47661111.60443295 7.05886913-.41517065 3.58225801-1.0196036 5.56406117-1.74391034 7.05886912-.41517064 1.49480796 1.3287397 1.00781276 3.38178613.41517065 7.05886912"
     id="path10" />
  <g
     transform="translate(-9.188606 -9.1924034)"
     id="g28"
     stroke-width="1.60000002"
     stroke="#000"
     fill="none">
    <path
       d="M10 130h80m-80 4h80m-80-8h80"
       id="path12" />
    <path
       d="M98.00000273 136.9999986l29.89615908 26.57479392M95.34252334 139.9896145l29.89615908 26.57479392m-24.5812003-32.55402573l29.89615908 26.57479392"
       id="path16" />
    <path
       d="m 132.83468,151.3163 -16.42802,18.48122 24.84711,5.54461 z"
       id="path18"
       inkscape:connector-curvature="0"
       style="fill:#ffffff;stroke-width:1.47300005;stroke-miterlimit:4;stroke-dasharray:none" />
    <circle
       cx="92.027809"
       r="20.846212"
       id="circle20"
       cy="132.9722"
       style="fill:#c0c0c0;stroke-width:1.335;stroke:#000000;stroke-opacity:1;stroke-miterlimit:4;stroke-dasharray:none" />
    <g
       id="g26">
      <path
         d="M114.99999948 54.99999978l11.95846363 10.62991756"
         id="path22" />
      <path
         d="M130.5460022 68.81889261l-3.32175242-8.30457469-.26578667 5.11559942-5.04917212.8636324z"
         id="path24"
         stroke="none"
         fill="#000" />
    </g>
  </g>
  <g
     stroke="#000"
     stroke-width="0"
     font-family="Georgia"
     font-size="15"
     font-style="italic"
     text-anchor="middle"
     id="g54" />
  <path
     d="m 24.270995,108.5268 0.21671,24.72626 22.14529,-12.55817 z"
     id="path18-7"
     inkscape:connector-curvature="0"
     style="fill:#ffffff;stroke:#000000;stroke-width:1.473;stroke-opacity:1;stroke-miterlimit:4;stroke-dasharray:none" />
  <circle
     style="stroke:#000000;stroke-width:1.47300005;stroke-miterlimit:4;stroke-dasharray:none;stroke-opacity:1"
     id="path4626"
     cx="98.956306"
     cy="97.557632"
     r="105.60001" />
</svg>
