<svg xmlns="http://www.w3.org/2000/svg" viewBox="0 0 181.62279 165.04373">
  <g fill="none" stroke="#000" stroke-linecap="round" stroke-width="1.60000002">
    <path d="M.811394 40.8075966h80M80.811394 40.8075966l45-40M89.811394 112.8075966l36-32M125.811394 80.8075966h55"/>
    <g fill="#000" stroke="none" stroke-width="0">
      <path d="M45.611394 40.8075966l-8-4 3.2 4-3.2 4zM106.89893204 17.61862144l-8.6367112 2.32534287 5.04917211.8636324.26578667 5.11559942zM111.39893496 93.61862283l-8.6367112 2.32534288 5.04917211.8636324.26578667 5.11559942zM158.111394 80.8075966l-8-4 3.2 4-3.2 4z"/>
    </g>
  </g>
  <path fill="none" stroke="#000" stroke-linecap="round" stroke-width="1.60000002" d="M80.81139597 40.80759712c-.5926421 3.677083-1.0796373 5.73012943.41517065 7.05886912 1.49480795 1.3287397 3.4766111.60443296 7.05886912-.41517064s5.56406117-1.74391034 7.05886913-.41517065c1.49480795 1.3287397 1.00781275 3.38178614.41517064 7.05886913-.5926421 3.677083-1.0796373 5.73012943.41517065 7.05886913 1.49480795 1.3287397 3.4766111.60443295 7.05886913-.41517065 3.58225801-1.0196036 5.56406117-1.74391034 7.05886912-.41517065 1.49480796 1.3287397 1.00781275 3.38178614.41517065 7.05886913-.59264211 3.677083-1.07963731 5.73012943.41517064 7.05886913 1.49480796 1.3287397 3.47661111.60443295 7.05886913-.41517065 3.58225801-1.0196036 5.56406117-1.74391034 7.05886912-.41517064 1.49480796 1.3287397 1.00781276 3.38178613.41517065 7.05886912"/>
  <g fill="none" stroke="#000" stroke-width="1.60000002" transform="translate(-9.188606 -9.1924034)">
    <path d="M10 130h80m-80 4h80m-80-8h80"/>
    <path fill="#fff" d="M43.6 122v16l14.4-8z"/>
    <path d="M98.00000273 136.9999986l29.89615908 26.57479392M95.34252334 139.9896145l29.89615908 26.57479392m-24.5812003-32.55402573l29.89615908 26.57479392"/>
    <path fill="#fff" d="M133.2111206 157.5955607l-10.62991757 11.95846363 16.07757605 3.587694z"/>
    <circle cx="10" r="10" fill="silver" transform="translate(85 130)"/>
    <g>
      <path d="M114.99999948 54.99999978l11.95846363 10.62991756"/>
      <path fill="#000" stroke="none" d="M130.5460022 68.81889261l-3.32175242-8.30457469-.26578667 5.11559942-5.04917212.8636324z"/>
    </g>
  </g>
  <g stroke="#000" stroke-width="0" font-family="Georgia" font-size="15" font-style="italic" text-anchor="middle">
    <text x="50" y="43" transform="translate(-9.188606 -9.1924034)">
      <tspan>k</tspan>
    </text>
    <text x="110" y="23" transform="translate(-9.188606 -9.1924034)">
      <tspan>k′</tspan>
    </text>
    <text x="125" y="53" transform="translate(-9.188606 -9.1924034)">
      <tspan>q</tspan>
    </text>
    <text x="160" y="80" transform="translate(-9.188606 -9.1924034)">
      <tspan>p + q</tspan>
    </text>
    <text x="125" y="117" transform="translate(-9.188606 -9.1924034)">
      <tspan>p</tspan>
    </text>
    <text x="50" y="119" transform="translate(-9.188606 -9.1924034)">
      <tspan>P</tspan>
    </text>
  </g>
</svg>
