<?xml version="1.0" encoding="UTF-8" standalone="no"?>
<svg
   xmlns:dc="http://purl.org/dc/elements/1.1/"
   xmlns:cc="http://creativecommons.org/ns#"
   xmlns:rdf="http://www.w3.org/1999/02/22-rdf-syntax-ns#"
   xmlns:svg="http://www.w3.org/2000/svg"
   xmlns="http://www.w3.org/2000/svg"
   xmlns:sodipodi="http://sodipodi.sourceforge.net/DTD/sodipodi-0.dtd"
   xmlns:inkscape="http://www.inkscape.org/namespaces/inkscape"
   viewBox="0 0 237.98275 237.98274"
   version="1.1"
   id="svg56"
   sodipodi:docname="logo-favicon.svg"
   inkscape:version="0.92.5 (2060ec1f9f, 2020-04-08)"
   width="237.98274"
   height="237.98274"
   inkscape:export-filename="/home/alessandro/Projects/N3PDF/yadism/docs/_assets/logo/logo-favicon.png"
   inkscape:export-xdpi="64.542496"
   inkscape:export-ydpi="64.542496">
  <metadata
     id="metadata62">
    <rdf:RDF>
      <cc:Work
         rdf:about="">
        <dc:format>image/svg+xml</dc:format>
        <dc:type
           rdf:resource="http://purl.org/dc/dcmitype/StillImage" />
        <dc:title></dc:title>
      </cc:Work>
    </rdf:RDF>
  </metadata>
  <defs
     id="defs60" />
  <sodipodi:namedview
     pagecolor="#ffffff"
     bordercolor="#666666"
     borderopacity="1"
     objecttolerance="10"
     gridtolerance="10"
     guidetolerance="10"
     inkscape:pageopacity="0"
     inkscape:pageshadow="2"
     inkscape:window-width="1866"
     inkscape:window-height="1053"
     id="namedview58"
     showgrid="false"
     inkscape:zoom="0.714962"
     inkscape:cx="-234.21025"
     inkscape:cy="215.7922"
     inkscape:window-x="54"
     inkscape:window-y="-10"
     inkscape:window-maximized="1"
     inkscape:current-layer="svg56" />
  <circle
     style="fill:#fdf3ed;fill-opacity:1;stroke:#483e37;stroke-width:5;stroke-miterlimit:4;stroke-dasharray:none;stroke-opacity:1"
     id="path827"
     cx="118.99137"
     cy="118.99137"
     r="116.49137" />
  <path
     id="path127"
     style="fill:#fef4ee;fill-opacity:0.95294118;stroke:#483e37;stroke-width:2;stroke-miterlimit:4;stroke-dasharray:none;stroke-opacity:1"
     r="110.52221"
     cy="110.52221"
     cx="110.52221"
     d=""
     inkscape:connector-curvature="0" />
  <g
     font-size="15"
     font-style="italic"
     id="g54"
     style="font-style:italic;font-size:15px;font-family:Georgia;text-anchor:middle;stroke:#000000;stroke-width:0"
     transform="translate(33.793404,21.378528)" />
  <g
     id="g843"
     transform="translate(3.3715864,4.1364569)"
     style="stroke:#483e37;stroke-opacity:1">
    <g
       transform="translate(24.808395,30.478158)"
       style="fill:none;stroke:#483e37;stroke-width:1.60000002;stroke-linecap:round;stroke-opacity:1"
       id="g8">
      <path
         inkscape:connector-curvature="0"
         id="path2"
         d="m 0.811394,40.807597 h 80 m 0,0 L 125.81139,0.8075966 M 89.811394,112.8076 125.81139,80.807597 m 0,0 h 55"
         style="stroke:#483e37;stroke-opacity:1;fill:#483e37;fill-opacity:1;stroke-width:2;stroke-miterlimit:4;stroke-dasharray:none" />
      <g
         style="fill:#000000;stroke:#483e37;stroke-width:0;stroke-opacity:1"
         id="g6">
        <path
           inkscape:connector-curvature="0"
           id="path4"
           d="m 45.611394,40.807597 -8,-4 3.2,4 -3.2,4 z m 61.287536,-23.188976 -8.636709,2.325343 5.049169,0.863633 0.26579,5.115599 z m 4.5,76.000002 -8.63671,2.325343 5.04918,0.863632 0.26578,5.115602 z m 46.71246,-12.811026 -8,-4 3.2,4 -3.2,4 z"
           style="stroke:#483e37;stroke-opacity:1;fill:#483e37;fill-opacity:1;stroke-width:1.5;stroke-miterlimit:4;stroke-dasharray:none" />
      </g>
    </g>
    <path
       style="fill:none;stroke:#483e37;stroke-width:1.60000002;stroke-linecap:round;stroke-opacity:1"
       inkscape:connector-curvature="0"
       id="path10"
       d="m 105.61979,71.285755 c -0.59264,3.677083 -1.07963,5.73013 0.41517,7.058869 1.49481,1.32874 3.47662,0.604433 7.05887,-0.41517 3.58226,-1.019604 5.56406,-1.743911 7.05887,-0.415171 1.49481,1.32874 1.00782,3.381786 0.41517,7.058869 -0.59264,3.677087 -1.07963,5.730127 0.41517,7.058867 1.49481,1.32874 3.47662,0.60443 7.05888,-0.41517 3.58225,-1.0196 5.56406,-1.74391 7.05886,-0.41517 1.49481,1.32874 1.00782,3.38179 0.41518,7.05887 -0.59265,3.677081 -1.07964,5.730131 0.41517,7.058871 1.4948,1.32874 3.47661,0.60443 7.05886,-0.41517 3.58226,-1.01961 5.56407,-1.74391 7.05887,-0.41517 1.49481,1.32874 1.00782,3.38179 0.41517,7.05887" />
    <g
       style="fill:none;stroke:#483e37;stroke-width:1.60000002;stroke-opacity:1"
       id="g28"
       transform="translate(15.619789,21.285754)">
      <path
         inkscape:connector-curvature="0"
         id="path12"
         d="m 10,130 h 80 m -80,4 h 80 m -80,-8 h 80"
         style="stroke:#483e37;stroke-opacity:1" />
      <path
         inkscape:connector-curvature="0"
         id="path16"
         d="m 98.000003,137 29.896157,26.57479 m -32.553637,-23.58518 29.896157,26.5748 m -24.5812,-32.55403 29.89616,26.5748"
         style="stroke:#483e37;stroke-opacity:1" />
      <path
         style="fill:#ffffff;stroke-width:2.5;stroke-miterlimit:4;stroke-dasharray:none;stroke:#483e37;stroke-opacity:1"
         inkscape:connector-curvature="0"
         id="path18"
         d="m 133.46186,152.88045 -16.6712,18.75477 25.21491,5.62669 z" />
      <circle
         style="fill:#ffffff;fill-opacity:1;stroke-width:2.5;stroke-miterlimit:4;stroke-dasharray:none;stroke:#483e37;stroke-opacity:1"
         cy="132.93704"
         id="circle20"
         r="19.672073"
         cx="92.762291" />
      <g
         id="g26"
         style="stroke:#483e37;stroke-opacity:1">
        <path
           inkscape:connector-curvature="0"
           id="path22"
           d="m 115,55 11.95846,10.629917"
           style="stroke:#483e37;stroke-opacity:1" />
        <path
           style="fill:#483e37;stroke:#483e37;stroke-opacity:1;fill-opacity:1;stroke-width:1.5;stroke-miterlimit:4;stroke-dasharray:none"
           inkscape:connector-curvature="0"
           id="path24"
           d="m 130.546,68.818893 -3.32175,-8.304575 -0.26579,5.115599 -5.04917,0.863633 z" />
      </g>
    </g>
    <path
       style="fill:#ffffff;stroke:#483e37;stroke-width:2.5;stroke-miterlimit:4;stroke-dasharray:none;stroke-opacity:1"
       inkscape:connector-curvature="0"
       id="path18-3"
       d="m 53.171718,138.7028 0.212302,25.09233 22.476959,-12.73725 z" />
  </g>
</svg>
