<?xml version="1.0" encoding="UTF-8" standalone="no"?>
<svg
   xmlns:dc="http://purl.org/dc/elements/1.1/"
   xmlns:cc="http://creativecommons.org/ns#"
   xmlns:rdf="http://www.w3.org/1999/02/22-rdf-syntax-ns#"
   xmlns:svg="http://www.w3.org/2000/svg"
   xmlns="http://www.w3.org/2000/svg"
   xmlns:sodipodi="http://sodipodi.sourceforge.net/DTD/sodipodi-0.dtd"
   xmlns:inkscape="http://www.inkscape.org/namespaces/inkscape"
   inkscape:export-ydpi="64.542496"
   inkscape:export-xdpi="64.542496"
   inkscape:export-filename="/home/alessandro/Projects/N3PDF/yadism/docs/_assets/logo/logo-favicon.png"
   height="326.77505"
   width="415.44983"
   inkscape:version="1.0.2 (e86c870879, 2021-01-15)"
   sodipodi:docname="dis-hadronic-leptonic.svg"
   id="svg56"
   version="1.1"
   viewBox="0 0 415.44984 326.77505">
  <g
     style="fill:none;stroke:#525252;stroke-width:1.6;stroke-opacity:1"
     id="g28"
     transform="matrix(2.0757829,0,0,2.0757829,-52.375119,-9.354678)">
    <g
       id="g26"
       style="stroke:#525252;stroke-opacity:1">
      <path
         inkscape:connector-curvature="0"
         id="path22"
         d="m 115,55 11.95846,10.629917"
         style="stroke:#525252;stroke-opacity:1" />
      <path
         style="fill:#525252;fill-opacity:1;stroke:#525252;stroke-width:1.5;stroke-miterlimit:4;stroke-dasharray:none;stroke-opacity:1"
         inkscape:connector-curvature="0"
         id="path24"
         d="m 130.546,68.818893 -3.32175,-8.304575 -0.26579,5.115599 -5.04917,0.863633 z" />
    </g>
  </g>
  <metadata
     id="metadata62">
    <rdf:RDF>
      <cc:Work
         rdf:about="">
        <dc:format>image/svg+xml</dc:format>
        <dc:type
           rdf:resource="http://purl.org/dc/dcmitype/StillImage" />
        <dc:title />
      </cc:Work>
    </rdf:RDF>
  </metadata>
  <defs
     id="defs60" />
  <sodipodi:namedview
     pagecolor="#ffffff"
     bordercolor="#666666"
     borderopacity="1"
     objecttolerance="10"
     gridtolerance="10"
     guidetolerance="10"
     inkscape:pageopacity="0"
     inkscape:pageshadow="2"
     inkscape:window-width="1868"
     inkscape:window-height="1018"
     id="namedview58"
     showgrid="false"
     inkscape:zoom="1.429924"
     inkscape:cx="81.152526"
     inkscape:cy="140.36301"
     inkscape:window-x="0"
     inkscape:window-y="0"
     inkscape:window-maximized="1"
     inkscape:current-layer="svg56"
     inkscape:document-rotation="0"
     inkscape:snap-bbox="false"
     inkscape:object-paths="true"
     inkscape:snap-object-midpoints="true"
     inkscape:snap-intersection-paths="false"
     inkscape:snap-smooth-nodes="false"
     inkscape:snap-global="true" />
  <path
     id="path127"
     style="fill:#fef4ee;fill-opacity:0.952941;stroke:#483e37;stroke-width:2;stroke-miterlimit:4;stroke-dasharray:none;stroke-opacity:1"
     r="110.52221"
     cy="110.52221"
     cx="110.52221"
     d=""
     inkscape:connector-curvature="0" />
  <g
     font-size="15"
     font-style="italic"
     id="g54"
     style="font-style:italic;font-size:15px;font-family:Georgia;text-anchor:middle;stroke:#000000;stroke-width:0"
     transform="translate(-58.003687,215.27062)" />
  <path
     style="fill:#483e37;fill-opacity:1;stroke:#525252;stroke-width:3.321;stroke-linecap:round;stroke-miterlimit:4;stroke-dasharray:none;stroke-opacity:1"
     d="m 288.60563,189.85572 h 125.1837"
     id="path869" />
  <path
     style="fill:#483e37;fill-opacity:1;stroke:#525252;stroke-width:3.321;stroke-linecap:round;stroke-miterlimit:4;stroke-dasharray:none;stroke-opacity:1"
     d="M 101.0562,325.11457 202.47324,234.96606"
     id="path867" />
  <path
     style="fill:#483e37;fill-opacity:1;stroke:#525252;stroke-width:3.321;stroke-linecap:round;stroke-miterlimit:4;stroke-dasharray:none;stroke-opacity:1"
     d="M 144.188,84.691809 237.59822,1.6605"
     id="path907" />
  <path
     style="fill:#483e37;fill-opacity:1;stroke:#525252;stroke-width:3.321;stroke-linecap:round;stroke-miterlimit:4;stroke-dasharray:none;stroke-opacity:1"
     d="M 1.6605,84.691809 H 124.70268"
     id="path2" />
  <path
     style="fill:#525252;fill-opacity:1;stroke:#525252;stroke-width:3.11367;stroke-linecap:round;stroke-miterlimit:4;stroke-dasharray:none;stroke-opacity:1"
     d="m 358.36786,189.85572 -16.60626,-8.30314 6.6425,8.30314 -6.6425,8.30313 z"
     id="path879" />
  <path
     style="fill:#525252;fill-opacity:1;stroke:#525252;stroke-width:3.11367;stroke-linecap:round;stroke-miterlimit:4;stroke-dasharray:none;stroke-opacity:1"
     d="m 159.21165,273.42069 -17.92793,4.82691 10.481,1.79271 0.5517,10.61888 z"
     id="path877" />
  <path
     style="fill:#525252;fill-opacity:1;stroke:#525252;stroke-width:3.11367;stroke-linecap:round;stroke-miterlimit:4;stroke-dasharray:none;stroke-opacity:1"
     d="m 198.34006,36.556534 -17.92793,4.826915 10.48098,1.79271 0.55172,10.61887 z"
     id="path875" />
  <path
     style="fill:#525252;fill-opacity:1;stroke:#525252;stroke-width:3.11367;stroke-linecap:round;stroke-miterlimit:4;stroke-dasharray:none;stroke-opacity:1"
     d="m 70.351972,84.691809 -16.60626,-8.30313 6.6425,8.30313 -6.6425,8.30313 z"
     id="path4" />
  <path
     style="fill:none;stroke:#525252;stroke-width:3.321;stroke-linecap:round;stroke-miterlimit:4;stroke-dasharray:none;stroke-opacity:1"
     inkscape:connector-curvature="0"
     id="path10"
     d="m 134.44534,94.434469 c -1.23019,7.632831 -2.24108,11.894511 0.8618,14.652681 3.10291,2.75818 7.21671,1.25467 14.65269,-0.8618 7.43599,-2.11648 11.54978,-3.61998 14.65268,-0.86181 3.1029,2.75818 2.09201,7.01986 0.8618,14.65268 -1.23019,7.63284 -2.24108,11.8945 0.8618,14.65268 3.1029,2.75817 7.21671,1.25466 14.65271,-0.86181 7.43597,-2.11646 11.54978,-3.61997 14.65266,-0.8618 3.1029,2.75818 2.09201,7.01986 0.86182,14.65268 -1.23021,7.63283 -2.2411,11.89451 0.8618,14.65269 3.10288,2.75817 7.21669,1.25466 14.65266,-0.86181 7.436,-2.11648 11.54981,-3.61997 14.65269,-0.8618 3.1029,2.75818 2.09201,7.01986 0.8618,14.65268" />
  <circle
     style="fill:none;fill-opacity:0.898039;fill-rule:evenodd;stroke:#3b63bd;stroke-width:3.321;stroke-miterlimit:4;stroke-dasharray:none;stroke-opacity:1"
     id="path881-3"
     cx="134.44534"
     cy="84.691811"
     r="9.7426615" />
  <g
     id="g862"
     style="stroke:#a2c58d;stroke-opacity:1">
    <path
       style="fill:none;stroke:#a2c58d;stroke-width:3;stroke-linecap:butt;stroke-linejoin:miter;stroke-miterlimit:4;stroke-dasharray:12, 6;stroke-dashoffset:0;stroke-opacity:1"
       d="m 202.57756,227.29347 63.76093,-47.71281"
       id="path7597" />
    <path
       style="fill:none;stroke:#a2c58d;stroke-width:3;stroke-linecap:butt;stroke-linejoin:miter;stroke-miterlimit:4;stroke-dasharray:12, 6;stroke-dashoffset:0;stroke-opacity:1"
       d="M 206.2783,254.64404 291.23535,191.07"
       id="path7597-8" />
    <path
       style="fill:none;stroke:#a2c58d;stroke-width:3;stroke-linecap:butt;stroke-linejoin:miter;stroke-miterlimit:4;stroke-dasharray:12, 6;stroke-dashoffset:0;stroke-opacity:1"
       d="M 246.03339,285.13474 308.67544,238.2592"
       id="path7597-8-9" />
    <path
       style="fill:none;stroke:#a2c58d;stroke-width:3;stroke-linecap:butt;stroke-linejoin:miter;stroke-miterlimit:4;stroke-dasharray:12, 6;stroke-dashoffset:0;stroke-opacity:1"
       d="m 222.42583,272.68056 81.25951,-60.80714"
       id="path7597-8-7" />
    <circle
       style="opacity:1;fill:none;fill-opacity:1;fill-rule:evenodd;stroke:#a2c58d;stroke-width:3.321;stroke-miterlimit:4;stroke-dasharray:none;stroke-opacity:1"
       id="path3448"
       cx="255.72192"
       cy="231.85304"
       r="53.339603" />
  </g>
  <circle
     style="fill:#ffffff;fill-opacity:1;fill-rule:evenodd;stroke:#6cbd3b;stroke-width:3.321;stroke-miterlimit:4;stroke-dasharray:none;stroke-opacity:1"
     id="path881"
     r="9.7426615"
     cy="186.92239"
     cx="227.53226" />
  <path
     style="opacity:1;fill:#ffffff;fill-opacity:1;fill-rule:evenodd;stroke:#525252;stroke-width:1.441;stroke-miterlimit:4;stroke-dasharray:2.882, 2.882;stroke-dashoffset:0;stroke-opacity:1"
     d="m 308.98324,234.74191 c 0.85718,-0.73599 1.87804,-1.35506 2.99877,-1.8018 1.12071,-0.44673 2.34068,-0.71985 3.57806,-0.79595 1.23737,-0.0761 2.49124,0.0461 3.6767,0.35447 1.18545,0.30836 2.30159,0.80365 3.27634,1.44045 0.97445,0.63682 1.80659,1.41528 2.44971,2.26487 0.64311,0.8496 1.09629,1.76979 1.34731,2.67785 0.25132,0.90805 0.29957,1.80286 0.16948,2.60446 -0.13009,0.80157 -0.43912,1.50845 -0.87062,2.05798 -0.4315,0.54948 -0.98513,0.94006 -1.58336,1.1377 -0.59822,0.1976 -1.23982,0.2009 -1.83957,0.0107 -0.59976,-0.19015 -1.15614,-0.57471 -1.59252,-1.11809 -0.43608,-0.54341 -0.75031,-1.24598 -0.88711,-2.04392 -0.13712,-0.79795 -0.0953,-1.69092 0.1481,-2.59845 0.24338,-0.90755 0.68984,-1.82871 1.32563,-2.681 0.63609,-0.85231 1.46212,-1.63437 2.43138,-2.27659 0.96926,-0.64227 2.08173,-1.14314 3.26444,-1.45868 1.18302,-0.31554 2.43566,-0.44428 3.67365,-0.37579 1.23799,0.0685 2.46009,0.33527 3.58447,0.77533 1.12469,0.44009 2.15013,1.05394 3.01343,1.78565 0.86328,0.73173 1.56259,1.58116 2.0637,2.4716 0.50143,0.89047 0.80375,1.82119 0.9085,2.70863 0.10504,0.88748 0.0116,1.73044 -0.24277,2.45368 -0.25438,0.72328 -0.67031,1.32532 -1.18119,1.75302 -0.51119,0.42768 -1.11736,0.67952 -1.73604,0.73397 -0.61869,0.0544 -1.24868,-0.0897 -1.80629,-0.41842 -0.55731,-0.32871 -1.04071,-0.84265 -1.37937,-1.4948 -0.33897,-0.65213 -0.53136,-1.44253 -0.53349,-2.29965 -0.002,-0.85713 0.1878,-1.78041 0.57898,-2.68683 0.39119,-0.90642 0.98514,-1.79486 1.75499,-2.58593 0.76985,-0.79111 1.7162,-1.48335 2.78134,-2.01538 1.06483,-0.53205 2.24816,-0.90238 3.47118,-1.07872 1.22302,-0.17638 2.48482,-0.15748 3.6999,0.0538 1.21508,0.21135 2.38253,0.61599 3.42538,1.17667 1.04315,0.56066 1.96019,1.27759 2.69798,2.08572 0.73747,0.80815 1.29416,1.70713 1.64901,2.61596 0.35485,0.90885 0.50631,1.82658 0.46997,2.67104 -0.0363,0.84445 -0.2611,1.61423 -0.62571,2.24093 -0.36432,0.62668 -0.86848,1.10871 -1.43831,1.40379 -0.57014,0.29509 -1.20561,0.40181 -1.82125,0.31169 -0.61563,-0.0901 -1.2105,-0.37807 -1.70398,-0.83703 -0.49317,-0.45894 -0.88314,-1.08931 -1.10821,-1.83373 -0.22475,-0.74441 -0.28307,-1.60269 -0.1423,-2.49734 0.14078,-0.89469 0.48157,-1.82494 1.01873,-2.70735 0.53684,-0.88241 1.27097,-1.71571 2.16326,-2.42562 0.89231,-0.70987 1.9428,-1.29484 3.08428,-1.70325 1.1418,-0.4084 2.37397,-0.63877 3.61409,-0.67154 1.23982,-0.0328 2.48666,0.1333 3.65624,0.48215 1.16928,0.34886 2.26038,0.88119 3.20306,1.54827 0.943,0.6671 1.73636,1.46898 2.33794,2.33315 0.60128,0.86417 1.00926,1.78998 1.2163,2.69425 0.20674,0.90427 0.21162,1.78585 0.0431,2.566 -0.16887,0.7801 -0.5115,1.45733 -0.96895,1.97161 -0.45745,0.51428 -1.02942,0.86412 -1.63589,1.01912 -0.60678,0.15503 -1.24745,0.11396 -1.83682,-0.11845 -0.58968,-0.23239 -1.12652,-0.65692 -1.53511,-1.23451 -0.4089,-0.57761 -0.68801,-1.30849 -0.78573,-2.12638 -0.0974,-0.81787 -0.0119,-1.72237 0.27576,-2.63199 0.28796,-0.9096 0.77901,-1.82337 1.45601,-2.65952 0.67733,-0.83611 1.54092,-1.59322 2.54071,-2.204 1.0001,-0.61075 2.13579,-1.07367 3.33316,-1.34813 1.19736,-0.27447 2.4552,-0.35908 3.6889,-0.24738 1.23341,0.11168 2.44146,0.42068 3.54356,0.89825 1.1021,0.47755 2.09701,1.12408 2.92395,1.88077 0.82695,0.75668 1.48411,1.6233 1.94188,2.52168 0.45775,0.89834 0.71456,1.82763 0.77625,2.70451 0.062,0.87688 -0.0721,1.70005 -0.36126,2.39614 -0.28888,0.6961 -0.7332,1.26361 -1.26425,1.65254 -0.53103,0.38888 -1.1485,0.59767 -1.76871,0.60872 -0.62022,0.0111 -1.24226,-0.1768 -1.78278,-0.5456 -0.54051,-0.36881 -0.99765,-0.91918 -1.30394,-1.60084 -0.30599,-0.68168 -0.45959,-1.49462 -0.41928,-2.36533 0.04,-0.87071 0.27483,-1.79856 0.7103,-2.70014 0.43546,-0.90162 1.07216,-1.77581 1.88018,-2.54455 0.80772,-0.76873 1.78735,-1.43053 2.87723,-1.92676 1.09019,-0.49623 2.29061,-0.82536 3.52127,-0.95896 1.23035,-0.1336 2.49001,-0.0704 3.69409,0.18298 1.20379,0.2533 2.35016,0.69749 3.36522,1.2917 1.01476,0.59419 1.89606,1.33863 2.59385,2.1658 0.69777,0.82716 1.21049,1.73663 1.52075,2.64648"
     title="t + cos(3*t) 0.5 * sin(3*t)"
     id="path6447" />
  <path
     style="fill:#ffffff;fill-opacity:1;fill-rule:evenodd;stroke:#525252;stroke-width:1.44099998;stroke-miterlimit:4;stroke-dasharray:2.88199997,2.88199997;stroke-dashoffset:0;stroke-opacity:1"
     d="m 351.33543,288.44177 c -0.85717,0.73598 -1.87803,1.35505 -2.99875,1.80178 -1.12071,0.44673 -2.34067,0.71986 -3.57803,0.79595 -1.23737,0.0761 -2.49123,-0.0461 -3.67668,-0.35447 -1.18545,-0.30836 -2.30158,-0.80365 -3.27633,-1.44044 -0.97444,-0.63682 -1.80658,-1.41527 -2.44969,-2.26485 -0.64311,-0.8496 -1.09628,-1.76978 -1.3473,-2.67783 -0.25132,-0.90805 -0.29957,-1.80285 -0.16948,-2.60445 0.13009,-0.80157 0.43912,-1.50844 0.87061,-2.05797 0.4315,-0.54948 0.98513,-0.94005 1.58336,-1.13769 0.59822,-0.1976 1.23981,-0.2009 1.83955,-0.0108 0.59976,0.19016 1.15614,0.57471 1.59252,1.11809 0.43607,0.54341 0.7503,1.24597 0.8871,2.04391 0.13712,0.79794 0.0953,1.69091 -0.14811,2.59844 -0.24337,0.90754 -0.68983,1.82869 -1.32561,2.68098 -0.63609,0.8523 -1.46212,1.63435 -2.43137,2.27657 -0.96925,0.64226 -2.08172,1.14313 -3.26442,1.45868 -1.18301,0.31553 -2.43565,0.44428 -3.67362,0.37578 -1.23798,-0.0685 -2.46008,-0.33527 -3.58445,-0.77533 -1.12469,-0.44008 -2.15012,-1.05393 -3.01341,-1.78563 -0.86328,-0.73173 -1.56258,-1.58116 -2.0637,-2.47159 -0.50142,-0.89046 -0.80373,-1.82118 -0.90848,-2.70862 -0.10505,-0.88746 -0.0116,-1.73041 0.24277,-2.45366 0.25438,-0.72327 0.67029,-1.32531 1.18118,-1.75301 0.51119,-0.42767 1.11735,-0.67951 1.73603,-0.73396 0.61868,-0.0544 1.24867,0.0897 1.80628,0.41842 0.5573,0.3287 1.0407,0.84264 1.37936,1.49479 0.33897,0.65212 0.53135,1.44252 0.53348,2.29963 0.002,0.85712 -0.1878,1.78041 -0.57898,2.68682 -0.39118,0.9064 -0.98513,1.79485 -1.75497,2.58591 -0.76985,0.7911 -1.71619,1.48334 -2.78132,2.01536 -1.06483,0.53205 -2.24815,0.90238 -3.47117,1.07873 -1.223,0.17638 -2.4848,0.15747 -3.69987,-0.0538 -1.21508,-0.21135 -2.38251,-0.61599 -3.42536,-1.17666 -1.04315,-0.56066 -1.96018,-1.27758 -2.69795,-2.08572 -0.73748,-0.80813 -1.29417,-1.70712 -1.64901,-2.61593 -0.35484,-0.90885 -0.50631,-1.82658 -0.46996,-2.67103 0.0363,-0.84444 0.26109,-1.61422 0.6257,-2.24091 0.36431,-0.62668 0.86848,-1.1087 1.4383,-1.40379 0.57013,-0.29508 1.20561,-0.4018 1.82123,-0.31169 0.61563,0.0901 1.2105,0.37808 1.70398,0.83703 0.49317,0.45894 0.88313,1.08931 1.10819,1.83372 0.22476,0.7444 0.28308,1.60268 0.14231,2.49733 -0.14078,0.89467 -0.48157,1.82493 -1.01873,2.70733 -0.53683,0.88241 -1.27095,1.7157 -2.16325,2.4256 -0.89229,0.70987 -1.94277,1.29483 -3.08425,1.70324 -1.14179,0.4084 -2.37396,0.63877 -3.61408,0.67154 -1.2398,0.0328 -2.48663,-0.13329 -3.65621,-0.48215 -1.16927,-0.34886 -2.26036,-0.88118 -3.20304,-1.54826 -0.94299,-0.66709 -1.73634,-1.46897 -2.33792,-2.33313 -0.60128,-0.86417 -1.00925,-1.78997 -1.2163,-2.69424 -0.20674,-0.90427 -0.21162,-1.78584 -0.0431,-2.56598 0.16887,-0.7801 0.5115,-1.45732 0.96894,-1.9716 0.45745,-0.51427 1.02941,-0.86411 1.63588,-1.01911 0.60677,-0.15503 1.24744,-0.11396 1.83681,0.11845 0.58967,0.23239 1.12651,0.65691 1.5351,1.2345 0.40889,0.57761 0.688,1.30848 0.78572,2.12636 0.0974,0.81788 0.0119,1.72236 -0.27575,2.63197 -0.28796,0.9096 -0.779,1.82337 -1.45601,2.65951 -0.67732,0.83611 -1.5409,1.59321 -2.54069,2.20399 -1.0001,0.61074 -2.13577,1.07366 -3.33313,1.34812 -1.19736,0.27447 -2.45519,0.35909 -3.68889,0.24738 -1.2334,-0.11167 -2.44145,-0.42068 -3.54353,-0.89825 -1.10209,-0.47754 -2.09699,-1.12407 -2.92393,-1.88075 -0.82695,-0.75668 -1.48411,-1.6233 -1.94187,-2.52166 -0.45774,-0.89835 -0.71456,-1.82763 -0.77625,-2.7045 -0.062,-0.87687 0.0721,-1.70003 0.36126,-2.39612 0.28888,-0.6961 0.73319,-1.26361 1.26424,-1.65253 0.53104,-0.38888 1.1485,-0.59767 1.76871,-0.60872 0.62021,-0.0111 1.24225,0.1768 1.78275,0.5456 0.54052,0.3688 0.99766,0.91917 1.30394,1.60082 0.30599,0.68168 0.45958,1.49461 0.41928,2.36532 -0.04,0.8707 -0.27483,1.79854 -0.71029,2.70013 -0.43546,0.90161 -1.07217,1.77579 -1.88018,2.54453 -0.8077,0.76872 -1.78733,1.43052 -2.87721,1.92674 -1.09018,0.49623 -2.29059,0.82536 -3.52124,0.95896 -1.23034,0.1336 -2.49,0.0704 -3.69408,-0.18298 -1.20378,-0.2533 -2.35013,-0.69749 -3.36519,-1.29169 -1.01475,-0.59419 -1.89605,-1.33863 -2.59383,-2.16579 -0.69777,-0.82715 -1.21049,-1.73661 -1.52074,-2.64646"
     title="t + cos(3*t) 0.5 * sin(3*t)"
     id="path6447-0" />
  <path
     style="fill:#483e37;fill-opacity:1;stroke:#525252;stroke-width:1.54100001;stroke-linecap:round;stroke-miterlimit:4;stroke-dasharray:1.54100001,6.16400003;stroke-dashoffset:0;stroke-opacity:1"
     d="m 306.34901,253.08741 h 75.35082"
     id="path869-9" />
  <path
     style="fill:#525252;fill-opacity:1;stroke:#525252;stroke-width:1.4407;stroke-linecap:round;stroke-miterlimit:4;stroke-dasharray:none;stroke-opacity:1"
     d="m 347.94967,253.08741 -9.33321,-4.66662 3.73328,4.66662 -3.73328,4.66661 z"
     id="path879-3" />
  <path
     style="fill:#483e37;fill-opacity:1;stroke:#525252;stroke-width:1.54100001;stroke-linecap:round;stroke-miterlimit:4;stroke-dasharray:1.54100001,6.16400003;stroke-dashoffset:0;stroke-opacity:1"
     d="M 371.07981,269.09883 H 295.72899"
     id="path869-9-6" />
  <path
     style="fill:#525252;fill-opacity:1;stroke:#525252;stroke-width:1.4407;stroke-linecap:round;stroke-miterlimit:4;stroke-dasharray:none;stroke-opacity:1"
     d="m 329.47915,269.09883 9.33321,-4.66662 -3.73327,4.66662 3.73327,4.66661 z"
     id="path879-3-0" />
</svg>
