<?xml version="1.0" encoding="UTF-8" standalone="no"?>
<svg
   xmlns:dc="http://purl.org/dc/elements/1.1/"
   xmlns:cc="http://creativecommons.org/ns#"
   xmlns:rdf="http://www.w3.org/1999/02/22-rdf-syntax-ns#"
   xmlns:svg="http://www.w3.org/2000/svg"
   xmlns="http://www.w3.org/2000/svg"
   xmlns:sodipodi="http://sodipodi.sourceforge.net/DTD/sodipodi-0.dtd"
   xmlns:inkscape="http://www.inkscape.org/namespaces/inkscape"
   width="106.64716mm"
   height="38.970619mm"
   viewBox="0 0 106.64717 38.970618"
   version="1.1"
   id="svg8"
   inkscape:version="1.0 (4035a4fb49, 2020-05-01)"
   sodipodi:docname="logo-docs.svg">
  <defs
     id="defs2">
    <rect
       x="53.445423"
       y="39.96769"
       width="139.55241"
       height="82.986259"
       id="rect1709" />
  </defs>
  <sodipodi:namedview
     inkscape:snap-intersection-paths="true"
     id="base"
     pagecolor="#ffffff"
     bordercolor="#666666"
     borderopacity="1.0"
     inkscape:pageopacity="0.0"
     inkscape:pageshadow="2"
     inkscape:zoom="1.979899"
     inkscape:cx="288.53642"
     inkscape:cy="32.158108"
     inkscape:document-units="mm"
     inkscape:current-layer="layer1"
     inkscape:document-rotation="0"
     showgrid="false"
     inkscape:window-width="1875"
     inkscape:window-height="1052"
     inkscape:window-x="45"
     inkscape:window-y="28"
     inkscape:window-maximized="1" />
  <metadata
     id="metadata5">
    <rdf:RDF>
      <cc:Work
         rdf:about="">
        <dc:format>image/svg+xml</dc:format>
        <dc:type
           rdf:resource="http://purl.org/dc/dcmitype/StillImage" />
        <dc:title />
      </cc:Work>
    </rdf:RDF>
  </metadata>
  <g
     inkscape:label="Layer 1"
     inkscape:groupmode="layer"
     id="layer1"
     transform="translate(-80.894634,-64.001629)">
    <rect
       y="69.712502"
       x="122.34475"
       height="18.84561"
       width="1.5704095"
       id="rect932"
       style="opacity:1;fill:#ffffff;fill-opacity:0.888776;stroke:#010101;stroke-width:0.157;stroke-miterlimit:4;stroke-dasharray:none;stroke-opacity:1" />
    <g
       style="fill:#ffffff"
       transform="translate(11.81974,3.4065147)"
       id="g86">
      <path
         sodipodi:nodetypes="zczzssssazszczsssszzzzzczczcz"
         id="path925"
         d="m 119.4687,87.425486 c 0.35991,2.2814 2.30164,4.38798 3.9521,4.950323 1.18481,3.458103 1.60475,3.366491 3.1429,4.431959 1.53815,1.065468 4.67106,1.044576 6.53552,0.63681 1.86446,-0.407766 3.41398,-1.225815 4.32088,-3.178331 1.06421,-2.291172 -2.01988,-13.710958 2.78128,-16.775247 3.54552,-2.262826 7.13146,-5.900066 10.45536,-3.404059 3.79984,2.853398 -10.35572,4.849226 -11.06189,7.920972 -0.39321,1.710424 0.39646,4.094444 1.96314,4.885444 5.2853,2.668492 17.74428,-7.451455 17.19409,-4.456476 -0.55019,2.994978 -21.78465,9.187605 -15.87851,11.592948 5.5958,2.278862 18.42059,-4.658858 22.39063,-6.705033 3.97004,-2.046174 5.77937,-3.514296 9.64711,-2.060698 -3.65287,-3.495831 -12.65899,3.494555 -16.82093,4.581105 -4.16195,1.08655 -6.38475,2.202631 -8.59338,1.772539 -1.56004,-0.303789 9.78318,-4.565509 13.05228,-6.87339 2.43181,-1.716781 3.13494,-7.648979 -0.12166,-8.072207 -5.54049,-0.720042 -17.84368,9.766023 -19.75426,7.109482 -1.37007,-1.904997 5.51855,-4.608299 8.46375,-5.972097 2.94521,-1.363798 7.94086,-4.136243 6.35766,-6.611101 -1.5832,-2.474858 -5.33239,-2.985148 -12.22313,-0.393375 -6.89073,2.591772 -12.19525,8.064214 -12.74025,12.596836 -0.54501,4.532622 4.32833,8.905596 1.74257,10.498171 -2.58577,1.592575 -5.96539,1.374256 -7.63568,-1.948093 2.34937,-1.893333 3.38546,-3.435603 3.55942,-4.724219 0.17406,-1.288598 0.0572,-2.86579 -2.70468,-4.133415 -0.39821,-2.285691 -1.11064,-3.091255 -2.40051,-3.258088 -1.28986,-0.166836 -2.13366,1.282627 -2.47987,3.019921 -2.11122,0.3991 -3.50387,2.287918 -3.14394,4.569319 z"
         style="fill:#ffffff;fill-opacity:0.42578933;stroke:#141414;stroke-width:0.275149;stroke-linecap:butt;stroke-linejoin:miter;stroke-miterlimit:4;stroke-dasharray:none;stroke-opacity:0.356239" />
      <text
         id="text16"
         y="92.128967"
         x="97.592285"
         style="font-style:normal;font-weight:normal;font-size:6.43436px;line-height:1.25;font-family:sans-serif;fill:#ffffff;fill-opacity:1;stroke:#000000;stroke-width:0.077;stroke-miterlimit:4;stroke-dasharray:none;stroke-opacity:1"
         xml:space="preserve"><tspan
           style="font-style:italic;font-variant:normal;font-weight:normal;font-stretch:normal;font-size:6.43436px;font-family:'Operator Mono';-inkscape-font-specification:'Operator Mono Italic';fill:#ffffff;fill-opacity:1;stroke:#000000;stroke-width:0.077;stroke-miterlimit:4;stroke-dasharray:none;stroke-opacity:1"
           y="92.128967"
           x="97.592285"
           id="tspan14"
           sodipodi:role="line">Yet Another DIS Module</tspan></text>
      <text
         id="text12"
         y="80.662018"
         x="118.29536"
         style="font-style:normal;font-variant:normal;font-weight:normal;font-stretch:normal;font-size:16.776px;line-height:1.25;font-family:'Operator Mono';-inkscape-font-specification:'Operator Mono';fill:#ffffff;fill-opacity:1;stroke:#010101;stroke-width:0.116;stroke-miterlimit:4;stroke-dasharray:none;stroke-opacity:1"
         xml:space="preserve"><tspan
           style="font-style:normal;font-variant:normal;font-weight:normal;font-stretch:normal;font-size:16.776px;font-family:'Operator Mono';-inkscape-font-specification:'Operator Mono';fill:#ffffff;fill-opacity:1;stroke:#010101;stroke-width:0.116;stroke-miterlimit:4;stroke-dasharray:none;stroke-opacity:1"
           y="80.662018"
           x="118.29536"
           id="tspan10"
           sodipodi:role="line">Yadism</tspan></text>
      <g
         transform="matrix(0.28660226,0,0,0.28660226,39.931189,25.697627)"
         id="g1642"
         style="fill:#ffffff">
        <g
           transform="matrix(0.63598373,0,0,0.63598373,100.89899,128.58907)"
           id="g1671"
           style="fill:#ffffff">
          <g
             id="g1559"
             stroke-width="1.6"
             stroke-linecap="round"
             stroke="#000000"
             fill="none"
             style="fill:#ffffff">
            <path
               id="path1553"
               d="m 0.811394,40.807597 h 80 m 0,0 L 125.81139,0.8075966 M 89.811394,112.8076 125.81139,80.807597 m 0,0 h 55"
               style="fill:none;fill-opacity:1;stroke:#000000;stroke-width:1.59101;stroke-miterlimit:4;stroke-dasharray:none;stroke-opacity:1" />
            <g
               id="g1557"
               stroke-width="0"
               stroke="none"
               fill="#000000"
               style="fill:#ffffff">
              <path
                 id="path1555"
                 d="m 45.611394,40.807597 -8,-4 3.2,4 -3.2,4 z m 61.287536,-23.188976 -8.636709,2.325343 5.049169,0.863633 0.26579,5.115599 z m 4.5,76.000002 -8.63671,2.325343 5.04918,0.863632 0.26578,5.115602 z m 46.71246,-12.811026 -8,-4 3.2,4 -3.2,4 z"
                 style="fill:#000000;fill-opacity:1;stroke:#cd2637;stroke-opacity:1" />
            </g>
          </g>
          <path
             id="path1561"
             d="m 80.811396,40.807597 c -0.592642,3.677083 -1.079637,5.73013 0.415171,7.058869 1.494808,1.32874 3.476611,0.604433 7.058869,-0.41517 3.582258,-1.019604 5.564061,-1.743911 7.058869,-0.415171 1.494808,1.32874 1.007813,3.381786 0.415171,7.058869 -0.592643,3.677083 -1.079638,5.73013 0.41517,7.058869 1.494808,1.32874 3.476611,0.604433 7.058874,-0.41517 3.58225,-1.019604 5.56406,-1.743911 7.05886,-0.415171 1.49481,1.32874 1.00782,3.381786 0.41518,7.058869 -0.59265,3.677083 -1.07964,5.730129 0.41517,7.058869 1.4948,1.32874 3.47661,0.604433 7.05886,-0.41517 3.58226,-1.019604 5.56407,-1.743911 7.05887,-0.415171 1.49481,1.32874 1.00782,3.381786 0.41517,7.058869"
             stroke-width="1.6"
             stroke-linecap="round"
             stroke="#000000"
             fill="none"
             style="fill:none" />
          <g
             id="g1579"
             transform="translate(-9.188606,-9.1924034)"
             stroke-width="1.6"
             stroke="#000000"
             fill="none"
             style="fill:#ffffff">
            <path
               id="path1563"
               d="m 10,130 h 80 m -80,4 h 80 m -80,-8 h 80"
               style="fill:#ffffff" />
            <path
               id="path1565"
               d="m 43.6,122 v 16 L 58,130 Z"
               fill="#ffffff"
               style="fill:#ffffff;fill-opacity:1;stroke-width:1.7556;stroke-miterlimit:4;stroke-dasharray:none" />
            <path
               id="path1567"
               d="m 98.000003,137 29.896157,26.57479 m -32.553637,-23.58518 29.896157,26.5748 m -24.5812,-32.55403 29.89616,26.5748"
               style="fill:#ffffff" />
            <path
               id="path1569"
               d="m 133.21112,157.59556 -10.62992,11.95846 16.07758,3.5877 z"
               fill="#ffffff"
               style="fill:#ffffff;fill-opacity:1;stroke-width:1.7556;stroke-miterlimit:4;stroke-dasharray:none" />
            <circle
               id="circle1571"
               transform="translate(85,130)"
               fill="#c0c0c0"
               r="10"
               cx="10"
               cy="0"
               style="fill:#ffffff;fill-opacity:1;stroke-width:1.7556;stroke-miterlimit:4;stroke-dasharray:none" />
            <g
               id="g1577"
               style="fill:#ffffff">
              <path
                 id="path1573"
                 d="m 115,55 11.95846,10.629917"
                 style="fill:#ffffff" />
              <path
                 id="path1575"
                 d="m 130.546,68.818893 -3.32175,-8.304575 -0.26579,5.115599 -5.04917,0.863633 z"
                 stroke="none"
                 fill="#000000"
                 style="fill:#000000;fill-opacity:1" />
            </g>
          </g>
          <g
             id="g1605"
             text-anchor="middle"
             font-style="italic"
             font-size="15px"
             font-family="Georgia"
             stroke-width="0"
             stroke="#000000"
             style="fill:#ffffff;stroke-width:0.548624;stroke-miterlimit:4;stroke-dasharray:none" />
        </g>
      </g>
    </g>
  </g>
</svg>
