<?xml version="1.0" encoding="UTF-8" standalone="no"?>
<!DOCTYPE svg PUBLIC "-//W3C//DTD SVG 1.1//EN"
 "http://www.w3.org/Graphics/SVG/1.1/DTD/svg11.dtd">
<!-- Generated by graphviz version 2.44.0 (0)
 -->
<!-- Title: G Pages: 1 -->
<svg width="837pt" height="899pt"
 viewBox="0.00 0.00 837.01 898.71" xmlns="http://www.w3.org/2000/svg" xmlns:xlink="http://www.w3.org/1999/xlink">
<g id="graph0" class="graph" transform="scale(1 1) rotate(0) translate(4 894.71)">
<title>G</title><style>.edge>path:hover{stroke-width:8}</style>
<polygon fill="white" stroke="transparent" points="-4,4 -4,-894.71 833.01,-894.71 833.01,4 -4,4"/>
<!-- yadism -->
<g id="node1" class="node">
<title>yadism</title><style>.edge>path:hover{stroke-width:8}</style>
<ellipse fill="#0606f9" stroke="black" cx="717.83" cy="-18" rx="28.01" ry="18"/>
<text text-anchor="middle" x="717.83" y="-15.5" font-family="Helvetica,sans-Serif" font-size="10.00" fill="#ffffff">yadism</text>
</g>
<!-- yadism_StructureFunction -->
<g id="node2" class="node">
<title>yadism_StructureFunction</title><style>.edge>path:hover{stroke-width:8}</style>
<ellipse fill="#3d3db8" stroke="black" cx="634.83" cy="-162" rx="55.17" ry="18"/>
<text text-anchor="middle" x="634.83" y="-159.5" font-family="Helvetica,sans-Serif" font-size="10.00" fill="#ffffff">StructureFunction</text>
</g>
<!-- yadism_runner -->
<g id="node5" class="node">
<title>yadism_runner</title><style>.edge>path:hover{stroke-width:8}</style>
<ellipse fill="#333399" stroke="black" cx="717.83" cy="-90" rx="27" ry="18"/>
<text text-anchor="middle" x="717.83" y="-87.5" font-family="Helvetica,sans-Serif" font-size="10.00" fill="#ffffff">runner</text>
</g>
<!-- yadism_StructureFunction&#45;&gt;yadism_runner -->
<g id="edge13" class="edge">
<title>yadism_StructureFunction&#45;&gt;yadism_runner</title><style>.edge>path:hover{stroke-width:8}</style>
<path fill="none" stroke="black" d="M654.08,-144.76C665.95,-134.76 681.25,-121.85 693.9,-111.19"/>
<polygon fill="#3d3db8" stroke="black" points="696.37,-113.68 701.75,-104.56 691.85,-108.33 696.37,-113.68"/>
</g>
<!-- yadism_basis_rotation -->
<g id="node3" class="node">
<title>yadism_basis_rotation</title><style>.edge>path:hover{stroke-width:8}</style>
<ellipse fill="#4c4cb3" stroke="black" cx="761.83" cy="-763.71" rx="45.15" ry="18"/>
<text text-anchor="middle" x="761.83" y="-761.21" font-family="Helvetica,sans-Serif" font-size="10.00" fill="#ffffff">basis_rotation</text>
</g>
<!-- yadism_output -->
<g id="node4" class="node">
<title>yadism_output</title><style>.edge>path:hover{stroke-width:8}</style>
<ellipse fill="#4040c0" stroke="black" cx="743.83" cy="-619.71" rx="27" ry="18"/>
<text text-anchor="middle" x="743.83" y="-617.21" font-family="Helvetica,sans-Serif" font-size="10.00" fill="#ffffff">output</text>
</g>
<!-- yadism_output&#45;&gt;yadism_runner -->
<g id="edge14" class="edge">
<title>yadism_output&#45;&gt;yadism_runner</title><style>.edge>path:hover{stroke-width:8}</style>
<path fill="none" stroke="black" d="M753.58,-602.52C759.37,-592.29 766.41,-578.6 770.83,-565.71 785.33,-523.48 789.83,-511.71 789.83,-467.07 789.83,-467.07 789.83,-467.07 789.83,-308.21 789.83,-246.55 755.12,-238.89 736.83,-180 730.48,-159.54 725.52,-135.78 722.27,-117.96"/>
<polygon fill="#4040c0" stroke="black" points="725.69,-117.21 720.51,-107.97 718.8,-118.42 725.69,-117.21"/>
</g>
<!-- yadism_runner&#45;&gt;yadism -->
<g id="edge15" class="edge">
<title>yadism_runner&#45;&gt;yadism</title><style>.edge>path:hover{stroke-width:8}</style>
<path fill="none" stroke="black" d="M717.83,-71.7C717.83,-63.98 717.83,-54.71 717.83,-46.11"/>
<polygon fill="#333399" stroke="black" points="721.33,-46.1 717.83,-36.1 714.33,-46.1 721.33,-46.1"/>
</g>
<!-- yadism_structure_functions -->
<g id="node6" class="node">
<title>yadism_structure_functions</title><style>.edge>path:hover{stroke-width:8}</style>
<ellipse fill="#0505db" stroke="black" cx="486.83" cy="-234" rx="58.73" ry="18"/>
<text text-anchor="middle" x="486.83" y="-231.5" font-family="Helvetica,sans-Serif" font-size="10.00" fill="#ffffff">structure_functions</text>
</g>
<!-- yadism_structure_functions&#45;&gt;yadism_StructureFunction -->
<g id="edge16" class="edge">
<title>yadism_structure_functions&#45;&gt;yadism_StructureFunction</title><style>.edge>path:hover{stroke-width:8}</style>
<path fill="none" stroke="black" d="M517.5,-218.5C540.07,-207.82 570.95,-193.21 595.37,-181.67"/>
<polygon fill="#0505db" stroke="black" points="597.17,-184.69 604.71,-177.25 594.18,-178.36 597.17,-184.69"/>
</g>
<!-- yadism_structure_functions&#45;&gt;yadism_runner -->
<g id="edge17" class="edge">
<title>yadism_structure_functions&#45;&gt;yadism_runner</title><style>.edge>path:hover{stroke-width:8}</style>
<path fill="none" stroke="black" d="M498.67,-216.32C513.49,-196.55 540.62,-163.8 570.83,-144 605.59,-121.22 651.38,-106.73 682.56,-98.76"/>
<polygon fill="#0505db" stroke="black" points="683.66,-102.09 692.54,-96.3 681.99,-95.29 683.66,-102.09"/>
</g>
<!-- yadism_structure_functions_EvaluatedStructureFunction -->
<g id="node7" class="node">
<title>yadism_structure_functions_EvaluatedStructureFunction</title><style>.edge>path:hover{stroke-width:8}</style>
<ellipse fill="#1616ca" stroke="black" cx="361.83" cy="-387.64" rx="96.75" ry="21.43"/>
<text text-anchor="middle" x="361.83" y="-390.64" font-family="Helvetica,sans-Serif" font-size="10.00" fill="#ffffff">structure_functions.</text>
<text text-anchor="middle" x="361.83" y="-379.64" font-family="Helvetica,sans-Serif" font-size="10.00" fill="#ffffff">EvaluatedStructureFunction</text>
</g>
<!-- yadism_structure_functions_F2heavy -->
<g id="node8" class="node">
<title>yadism_structure_functions_F2heavy</title><style>.edge>path:hover{stroke-width:8}</style>
<ellipse fill="#3535a1" stroke="black" cx="650.83" cy="-309.21" rx="72.66" ry="21.43"/>
<text text-anchor="middle" x="650.83" y="-312.21" font-family="Helvetica,sans-Serif" font-size="10.00" fill="#ffffff">structure_functions.</text>
<text text-anchor="middle" x="650.83" y="-301.21" font-family="Helvetica,sans-Serif" font-size="10.00" fill="#ffffff">F2heavy</text>
</g>
<!-- yadism_structure_functions_EvaluatedStructureFunction&#45;&gt;yadism_structure_functions_F2heavy -->
<g id="edge18" class="edge">
<title>yadism_structure_functions_EvaluatedStructureFunction&#45;&gt;yadism_structure_functions_F2heavy</title><style>.edge>path:hover{stroke-width:8}</style>
<path fill="none" stroke="black" d="M421.36,-370.9C470.21,-357.98 539.15,-339.75 588.7,-326.64"/>
<polygon fill="#1616ca" stroke="black" points="589.88,-329.95 598.65,-324.01 588.09,-323.19 589.88,-329.95"/>
</g>
<!-- yadism_structure_functions_F2light -->
<g id="node9" class="node">
<title>yadism_structure_functions_F2light</title><style>.edge>path:hover{stroke-width:8}</style>
<ellipse fill="#3535a1" stroke="black" cx="72.83" cy="-309.21" rx="72.66" ry="21.43"/>
<text text-anchor="middle" x="72.83" y="-312.21" font-family="Helvetica,sans-Serif" font-size="10.00" fill="#ffffff">structure_functions.</text>
<text text-anchor="middle" x="72.83" y="-301.21" font-family="Helvetica,sans-Serif" font-size="10.00" fill="#ffffff">F2light</text>
</g>
<!-- yadism_structure_functions_EvaluatedStructureFunction&#45;&gt;yadism_structure_functions_F2light -->
<g id="edge19" class="edge">
<title>yadism_structure_functions_EvaluatedStructureFunction&#45;&gt;yadism_structure_functions_F2light</title><style>.edge>path:hover{stroke-width:8}</style>
<path fill="none" stroke="black" d="M302.3,-370.9C253.45,-357.98 184.51,-339.75 134.96,-326.64"/>
<polygon fill="#1616ca" stroke="black" points="135.58,-323.19 125.01,-324.01 133.79,-329.95 135.58,-323.19"/>
</g>
<!-- yadism_structure_functions_FLheavy -->
<g id="node10" class="node">
<title>yadism_structure_functions_FLheavy</title><style>.edge>path:hover{stroke-width:8}</style>
<ellipse fill="#3535a1" stroke="black" cx="236.83" cy="-309.21" rx="72.66" ry="21.43"/>
<text text-anchor="middle" x="236.83" y="-312.21" font-family="Helvetica,sans-Serif" font-size="10.00" fill="#ffffff">structure_functions.</text>
<text text-anchor="middle" x="236.83" y="-301.21" font-family="Helvetica,sans-Serif" font-size="10.00" fill="#ffffff">FLheavy</text>
</g>
<!-- yadism_structure_functions_EvaluatedStructureFunction&#45;&gt;yadism_structure_functions_FLheavy -->
<g id="edge20" class="edge">
<title>yadism_structure_functions_EvaluatedStructureFunction&#45;&gt;yadism_structure_functions_FLheavy</title><style>.edge>path:hover{stroke-width:8}</style>
<path fill="none" stroke="black" d="M330.61,-367.55C314.11,-357.46 293.69,-344.97 276.12,-334.23"/>
<polygon fill="#1616ca" stroke="black" points="277.58,-331.03 267.22,-328.79 273.93,-337 277.58,-331.03"/>
</g>
<!-- yadism_structure_functions_FLlight -->
<g id="node11" class="node">
<title>yadism_structure_functions_FLlight</title><style>.edge>path:hover{stroke-width:8}</style>
<ellipse fill="#3535a1" stroke="black" cx="486.83" cy="-309.21" rx="72.66" ry="21.43"/>
<text text-anchor="middle" x="486.83" y="-312.21" font-family="Helvetica,sans-Serif" font-size="10.00" fill="#ffffff">structure_functions.</text>
<text text-anchor="middle" x="486.83" y="-301.21" font-family="Helvetica,sans-Serif" font-size="10.00" fill="#ffffff">FLlight</text>
</g>
<!-- yadism_structure_functions_EvaluatedStructureFunction&#45;&gt;yadism_structure_functions_FLlight -->
<g id="edge21" class="edge">
<title>yadism_structure_functions_EvaluatedStructureFunction&#45;&gt;yadism_structure_functions_FLlight</title><style>.edge>path:hover{stroke-width:8}</style>
<path fill="none" stroke="black" d="M393.05,-367.55C409.56,-357.46 429.98,-344.97 447.55,-334.23"/>
<polygon fill="#1616ca" stroke="black" points="449.73,-337 456.44,-328.79 446.08,-331.03 449.73,-337"/>
</g>
<!-- yadism_structure_functions_F2heavy&#45;&gt;yadism_structure_functions -->
<g id="edge22" class="edge">
<title>yadism_structure_functions_F2heavy&#45;&gt;yadism_structure_functions</title><style>.edge>path:hover{stroke-width:8}</style>
<path fill="none" stroke="black" d="M612.38,-291.05C587,-279.72 553.78,-264.89 527.89,-253.33"/>
<polygon fill="#3535a1" stroke="black" points="529.26,-250.11 518.71,-249.23 526.41,-256.5 529.26,-250.11"/>
</g>
<!-- yadism_structure_functions_F2light&#45;&gt;yadism_structure_functions -->
<g id="edge23" class="edge">
<title>yadism_structure_functions_F2light&#45;&gt;yadism_structure_functions</title><style>.edge>path:hover{stroke-width:8}</style>
<path fill="none" stroke="black" d="M125.62,-294.51C135.3,-292.2 145.35,-289.92 154.83,-288 248.01,-269.11 357.03,-252.8 424,-243.44"/>
<polygon fill="#3535a1" stroke="black" points="424.55,-246.89 433.97,-242.05 423.59,-239.96 424.55,-246.89"/>
</g>
<!-- yadism_structure_functions_FLheavy&#45;&gt;yadism_structure_functions -->
<g id="edge24" class="edge">
<title>yadism_structure_functions_FLheavy&#45;&gt;yadism_structure_functions</title><style>.edge>path:hover{stroke-width:8}</style>
<path fill="none" stroke="black" d="M286.52,-293.66C329.85,-280.97 392.43,-262.64 436.08,-249.86"/>
<polygon fill="#3535a1" stroke="black" points="437.3,-253.15 445.91,-246.98 435.33,-246.44 437.3,-253.15"/>
</g>
<!-- yadism_structure_functions_FLlight&#45;&gt;yadism_structure_functions -->
<g id="edge25" class="edge">
<title>yadism_structure_functions_FLlight&#45;&gt;yadism_structure_functions</title><style>.edge>path:hover{stroke-width:8}</style>
<path fill="none" stroke="black" d="M486.83,-287.82C486.83,-279.97 486.83,-270.86 486.83,-262.45"/>
<polygon fill="#3535a1" stroke="black" points="490.33,-262.31 486.83,-252.31 483.33,-262.31 490.33,-262.31"/>
</g>
<!-- yadism_structure_functions_TMC -->
<g id="node12" class="node">
<title>yadism_structure_functions_TMC</title><style>.edge>path:hover{stroke-width:8}</style>
<ellipse fill="#4040c0" stroke="black" cx="688.83" cy="-544.49" rx="72.66" ry="21.43"/>
<text text-anchor="middle" x="688.83" y="-547.49" font-family="Helvetica,sans-Serif" font-size="10.00" fill="#ffffff">structure_functions.</text>
<text text-anchor="middle" x="688.83" y="-536.49" font-family="Helvetica,sans-Serif" font-size="10.00" fill="#ffffff">TMC</text>
</g>
<!-- yadism_structure_functions_TMC&#45;&gt;yadism_StructureFunction -->
<g id="edge26" class="edge">
<title>yadism_structure_functions_TMC&#45;&gt;yadism_StructureFunction</title><style>.edge>path:hover{stroke-width:8}</style>
<path fill="none" stroke="black" d="M702.81,-523.51C721.37,-494.99 751.83,-440.3 751.83,-388.64 751.83,-388.64 751.83,-388.64 751.83,-308.21 751.83,-254.34 702.4,-209.15 667.8,-184.12"/>
<polygon fill="#4040c0" stroke="black" points="669.55,-181.07 659.36,-178.19 665.53,-186.8 669.55,-181.07"/>
</g>
<!-- yadism_structure_functions_convolution -->
<g id="node13" class="node">
<title>yadism_structure_functions_convolution</title><style>.edge>path:hover{stroke-width:8}</style>
<ellipse fill="#3a3ab0" stroke="black" cx="462.83" cy="-466.07" rx="72.66" ry="21.43"/>
<text text-anchor="middle" x="462.83" y="-469.07" font-family="Helvetica,sans-Serif" font-size="10.00" fill="#ffffff">structure_functions.</text>
<text text-anchor="middle" x="462.83" y="-458.07" font-family="Helvetica,sans-Serif" font-size="10.00" fill="#ffffff">convolution</text>
</g>
<!-- yadism_structure_functions_convolution&#45;&gt;yadism_structure_functions_EvaluatedStructureFunction -->
<g id="edge27" class="edge">
<title>yadism_structure_functions_convolution&#45;&gt;yadism_structure_functions_EvaluatedStructureFunction</title><style>.edge>path:hover{stroke-width:8}</style>
<path fill="none" stroke="black" d="M437.61,-445.98C425.03,-436.46 409.63,-424.8 396,-414.5"/>
<polygon fill="#3a3ab0" stroke="black" points="397.88,-411.53 387.79,-408.28 393.65,-417.11 397.88,-411.53"/>
</g>
<!-- yadism_structure_functions_splitting_functions -->
<g id="node14" class="node">
<title>yadism_structure_functions_splitting_functions</title><style>.edge>path:hover{stroke-width:8}</style>
<ellipse fill="#2222e7" stroke="black" cx="549.83" cy="-387.64" rx="72.66" ry="21.43"/>
<text text-anchor="middle" x="549.83" y="-390.64" font-family="Helvetica,sans-Serif" font-size="10.00" fill="#ffffff">structure_functions.</text>
<text text-anchor="middle" x="549.83" y="-379.64" font-family="Helvetica,sans-Serif" font-size="10.00" fill="#ffffff">splitting_functions</text>
</g>
<!-- yadism_structure_functions_splitting_functions&#45;&gt;yadism_structure_functions_F2heavy -->
<g id="edge28" class="edge">
<title>yadism_structure_functions_splitting_functions&#45;&gt;yadism_structure_functions_F2heavy</title><style>.edge>path:hover{stroke-width:8}</style>
<path fill="none" stroke="black" d="M575.06,-367.55C587.83,-357.89 603.51,-346.02 617.29,-335.6"/>
<polygon fill="#2222e7" stroke="black" points="619.72,-338.15 625.58,-329.32 615.49,-332.57 619.72,-338.15"/>
</g>
<!-- yadism_structure_functions_splitting_functions&#45;&gt;yadism_structure_functions_F2light -->
<g id="edge29" class="edge">
<title>yadism_structure_functions_splitting_functions&#45;&gt;yadism_structure_functions_F2light</title><style>.edge>path:hover{stroke-width:8}</style>
<path fill="none" stroke="black" d="M497.55,-372.7C487.72,-370.38 477.5,-368.17 467.83,-366.43 330.02,-341.62 292.65,-355.23 154.83,-330.43 148.34,-329.26 141.59,-327.87 134.88,-326.39"/>
<polygon fill="#2222e7" stroke="black" points="135.64,-322.97 125.11,-324.15 134.08,-329.8 135.64,-322.97"/>
</g>
<!-- yadism_structure_functions_splitting_functions&#45;&gt;yadism_structure_functions_FLheavy -->
<g id="edge30" class="edge">
<title>yadism_structure_functions_splitting_functions&#45;&gt;yadism_structure_functions_FLheavy</title><style>.edge>path:hover{stroke-width:8}</style>
<path fill="none" stroke="black" d="M495.58,-373.24C486.33,-370.96 476.8,-368.62 467.83,-366.43 411.62,-352.66 347.69,-337.11 301.36,-325.86"/>
<polygon fill="#2222e7" stroke="black" points="301.99,-322.41 291.45,-323.46 300.34,-329.22 301.99,-322.41"/>
</g>
<!-- yadism_structure_functions_splitting_functions&#45;&gt;yadism_structure_functions_FLlight -->
<g id="edge31" class="edge">
<title>yadism_structure_functions_splitting_functions&#45;&gt;yadism_structure_functions_FLlight</title><style>.edge>path:hover{stroke-width:8}</style>
<path fill="none" stroke="black" d="M533.61,-366.96C526.32,-358.11 517.58,-347.52 509.65,-337.89"/>
<polygon fill="#2222e7" stroke="black" points="512.28,-335.58 503.22,-330.09 506.88,-340.04 512.28,-335.58"/>
</g>
<!-- yadism_utils -->
<g id="node15" class="node">
<title>yadism_utils</title><style>.edge>path:hover{stroke-width:8}</style>
<ellipse fill="#4747c2" stroke="black" cx="772.83" cy="-162" rx="27" ry="18"/>
<text text-anchor="middle" x="772.83" y="-159.5" font-family="Helvetica,sans-Serif" font-size="10.00" fill="#ffffff">utils</text>
</g>
<!-- yadism_utils&#45;&gt;yadism_runner -->
<g id="edge32" class="edge">
<title>yadism_utils&#45;&gt;yadism_runner</title><style>.edge>path:hover{stroke-width:8}</style>
<path fill="none" stroke="black" d="M760.9,-145.81C753.62,-136.55 744.17,-124.52 735.98,-114.09"/>
<polygon fill="#4747c2" stroke="black" points="738.67,-111.86 729.74,-106.16 733.17,-116.18 738.67,-111.86"/>
</g>
<!-- numpy -->
<g id="node16" class="node">
<title>numpy</title><style>.edge>path:hover{stroke-width:8}</style>
<polygon fill="#950303" stroke="black" points="715.83,-890.71 712.83,-894.71 691.83,-894.71 688.83,-890.71 661.83,-890.71 661.83,-854.71 715.83,-854.71 715.83,-890.71"/>
<text text-anchor="middle" x="688.83" y="-870.21" font-family="Helvetica,sans-Serif" font-size="10.00" fill="#ffffff">numpy</text>
</g>
<!-- numpy&#45;&gt;yadism_basis_rotation -->
<g id="edge2" class="edge">
<title>numpy&#45;&gt;yadism_basis_rotation</title><style>.edge>path:hover{stroke-width:8}</style>
<path fill="none" stroke="black" d="M688.83,-817.71C693.7,-801.7 707.21,-789.82 721.31,-781.41"/>
<polygon fill="#950303" stroke="black" points="723,-784.48 730.1,-776.62 719.64,-778.34 723,-784.48"/>
</g>
<!-- numpy&#45;&gt;yadism_output -->
<g id="edge3" class="edge">
<title>numpy&#45;&gt;yadism_output</title><style>.edge>path:hover{stroke-width:8}</style>
<path fill="none" stroke="black" d="M743.83,-690.71C748.47,-676.99 748.79,-660.88 747.81,-647.57"/>
<polygon fill="#950303" stroke="black" points="751.29,-647.2 746.8,-637.6 744.33,-647.9 751.29,-647.2"/>
</g>
<!-- numpy&#45;&gt;yadism_runner -->
<g id="edge4" class="edge">
<title>numpy&#45;&gt;yadism_runner</title><style>.edge>path:hover{stroke-width:8}</style>
<path fill="none" stroke="black" d="M743.83,-690.71C752.96,-663.73 767.82,-663.52 779.83,-637.71 813.06,-566.27 827.83,-545.85 827.83,-467.07 827.83,-467.07 827.83,-467.07 827.83,-233 827.83,-192.55 832.56,-176.76 808.83,-144 794.64,-124.4 770.8,-110.9 751.08,-102.44"/>
<polygon fill="#950303" stroke="black" points="752.38,-99.18 741.79,-98.68 749.75,-105.67 752.38,-99.18"/>
</g>
<!-- numpy&#45;&gt;yadism_structure_functions_EvaluatedStructureFunction -->
<g id="edge5" class="edge">
<title>numpy&#45;&gt;yadism_structure_functions_EvaluatedStructureFunction</title><style>.edge>path:hover{stroke-width:8}</style>
<path fill="none" stroke="black" d="M361.83,-465.07C349.98,-453.37 349.75,-434.77 352.6,-418.85"/>
<polygon fill="#950303" stroke="black" points="356.06,-419.39 354.82,-408.87 349.23,-417.87 356.06,-419.39"/>
</g>
<!-- numpy&#45;&gt;yadism_structure_functions_F2heavy -->
<g id="edge6" class="edge">
<title>numpy&#45;&gt;yadism_structure_functions_F2heavy</title><style>.edge>path:hover{stroke-width:8}</style>
<path fill="none" stroke="black" d="M650.83,-386.64C647.57,-371.77 647.24,-354.87 647.86,-340.76"/>
<polygon fill="#950303" stroke="black" points="651.36,-340.78 648.48,-330.58 644.38,-340.35 651.36,-340.78"/>
</g>
<!-- numpy&#45;&gt;yadism_structure_functions_F2light -->
<g id="edge7" class="edge">
<title>numpy&#45;&gt;yadism_structure_functions_F2light</title><style>.edge>path:hover{stroke-width:8}</style>
<path fill="none" stroke="black" d="M686.35,-854.63C685.41,-844.05 685.3,-830.33 688.83,-818.71"/>
<path fill="none" stroke="black" d="M688.83,-817.71C695.68,-795.17 693.22,-787.85 688.83,-764.71"/>
<path fill="none" stroke="black" d="M688.83,-762.71C682.34,-728.49 477.68,-577 462.83,-545.49"/>
<path fill="none" stroke="black" d="M462.83,-543.49C434.78,-509.35 414.38,-516.04 380.83,-487.28 371.47,-479.26 370.61,-475.73 361.83,-467.07"/>
<path fill="none" stroke="black" d="M361.83,-465.07C323.89,-427.6 298.22,-441.21 255.83,-408.85 246.03,-401.37 246.56,-396.22 236.83,-388.64"/>
<path fill="none" stroke="black" d="M236.83,-386.64C204.58,-361.52 162.73,-342.19 129.38,-329.25"/>
<polygon fill="#950303" stroke="black" points="130.36,-325.88 119.77,-325.61 127.88,-332.42 130.36,-325.88"/>
</g>
<!-- numpy&#45;&gt;yadism_structure_functions_FLheavy -->
<g id="edge8" class="edge">
<title>numpy&#45;&gt;yadism_structure_functions_FLheavy</title><style>.edge>path:hover{stroke-width:8}</style>
<path fill="none" stroke="black" d="M236.83,-386.64C223.4,-376.17 223.43,-356.99 226.81,-340.46"/>
<polygon fill="#950303" stroke="black" points="230.24,-341.16 229.26,-330.61 223.45,-339.48 230.24,-341.16"/>
</g>
<!-- numpy&#45;&gt;yadism_structure_functions_FLlight -->
<g id="edge9" class="edge">
<title>numpy&#45;&gt;yadism_structure_functions_FLlight</title><style>.edge>path:hover{stroke-width:8}</style>
<path fill="none" stroke="black" d="M688.83,-762.71C681.46,-723.83 731.15,-730.19 743.83,-692.71"/>
<path fill="none" stroke="black" d="M743.83,-690.71C756.51,-653.23 711.88,-652.87 688.83,-620.71"/>
<path fill="none" stroke="black" d="M688.83,-618.71C663.55,-583.43 627.58,-603.82 606.83,-565.71 597.82,-549.14 603.87,-541.9 606.83,-523.28 616.73,-461.11 664.3,-450.14 650.83,-388.64"/>
<path fill="none" stroke="black" d="M650.83,-386.64C644.31,-364.38 590.75,-342.37 546.58,-327.73"/>
<polygon fill="#950303" stroke="black" points="547.62,-324.39 537.03,-324.63 545.46,-331.05 547.62,-324.39"/>
</g>
<!-- numpy&#45;&gt;yadism_structure_functions_TMC -->
<g id="edge10" class="edge">
<title>numpy&#45;&gt;yadism_structure_functions_TMC</title><style>.edge>path:hover{stroke-width:8}</style>
<path fill="none" stroke="black" d="M688.83,-618.71C680.07,-606.48 679.41,-589.93 681.23,-575.65"/>
<polygon fill="#950303" stroke="black" points="684.69,-576.19 682.91,-565.75 677.79,-575.02 684.69,-576.19"/>
</g>
<!-- numpy&#45;&gt;yadism_structure_functions_convolution -->
<g id="edge11" class="edge">
<title>numpy&#45;&gt;yadism_structure_functions_convolution</title><style>.edge>path:hover{stroke-width:8}</style>
<path fill="none" stroke="black" d="M462.83,-543.49C456.19,-529.39 455.64,-512.14 456.99,-497.59"/>
<polygon fill="#950303" stroke="black" points="460.48,-497.92 458.26,-487.57 453.54,-497.05 460.48,-497.92"/>
</g>
<!-- scipy -->
<g id="node17" class="node">
<title>scipy</title><style>.edge>path:hover{stroke-width:8}</style>
<polygon fill="#039503" stroke="black" points="715.83,-709.71 712.83,-713.71 691.83,-713.71 688.83,-709.71 661.83,-709.71 661.83,-673.71 715.83,-673.71 715.83,-709.71"/>
<text text-anchor="middle" x="688.83" y="-689.21" font-family="Helvetica,sans-Serif" font-size="10.00" fill="#ffffff">scipy</text>
</g>
<!-- numpy&#45;&gt;scipy -->
<g id="edge1" class="edge">
<title>numpy&#45;&gt;scipy</title><style>.edge>path:hover{stroke-width:8}</style>
<path fill="none" stroke="black" d="M688.83,-762.71C686.2,-748.81 685.96,-733.07 686.48,-720.05"/>
<polygon fill="#950303" stroke="black" points="689.99,-720.03 687.06,-709.85 683,-719.63 689.99,-720.03"/>
</g>
<!-- scipy&#45;&gt;yadism_structure_functions_convolution -->
<g id="edge12" class="edge">
<title>scipy&#45;&gt;yadism_structure_functions_convolution</title><style>.edge>path:hover{stroke-width:8}</style>
<path fill="none" stroke="black" d="M671.47,-673.53C632.31,-634.77 536.84,-540.31 489.86,-493.81"/>
<polygon fill="#039503" stroke="black" points="492.05,-491.06 482.48,-486.51 487.13,-496.03 492.05,-491.06"/>
</g>
</g>
</svg>
